<svg xmlns="http://www.w3.org/2000/svg" viewBox="0 0 300 300" xmlns:v="https://vecta.io/nano"><circle cx="149.996" cy="156.072" r="28.197"/><path d="M149.996 0C67.157 0 .001 67.161.001 149.997S67.157 300 149.996 300s150.003-67.163 150.003-150.003S232.835 0 149.996 0zm78.824 171.799l-21.306 1.372a59.58 59.58 0 0 1-4.746 11.482l14.088 16.039-22.245 22.243-16.031-14.091c-3.618 1.961-7.464 3.551-11.482 4.741l-1.377 21.311-31.458-.003-1.375-21.309c-4.015-1.19-7.861-2.78-11.479-4.741l-16.034 14.091-22.243-22.25 14.088-16.031c-1.963-3.618-3.553-7.464-4.746-11.482l-21.306-1.375v-31.458l21.306-1.375a59.85 59.85 0 0 1 4.746-11.479l-14.088-16.031 22.245-22.248 16.031 14.088c3.618-1.963 7.464-3.551 11.484-4.744l1.375-21.309h31.452l1.377 21.309c4.017 1.193 7.864 2.78 11.482 4.744l16.036-14.088 22.243 22.248-14.088 16.031c1.961 3.618 3.553 7.464 4.746 11.479l21.306 1.375-.001 31.461z"/></svg>