<svg xmlns="http://www.w3.org/2000/svg" viewBox="0 0 665.4 512.7" xmlns:v="https://vecta.io/nano"><path d="M150.2 354.7l20.7-22.8c10.7-11.5 11.4-20.7 1.8-33.3-11.9-15.6-24.3-30.9-35.5-47-14.5-20.8-26.4-42.9-33.7-67.2-9.7-32.1-8.9-63.9 6.3-94.3 10.8-21.6 27-38.5 48.8-49.8 28.4-14.8 59-21.5 90.5-24.5 38.9-3.7 77.2-.2 114.6 11.2 23.3 7.1 45.6 16.8 65.7 31 5 3.5 9.7 7.5 13.7 13.1-4.2.4-7.7-.5-11.1-1.3-3.2-.7-6.3-.6-9.3.4-2 .7-3.8 1.7-4.1 3.9-.4 2.4 1.6 3.5 3.3 4.5 7.5 4.4 15.9 4.5 24.2 5.1 6.8.5 11.5 4.3 12.4 10.9.4 2.6-1.3 3.1-3.2 3.5-4.4.8-8.7 1.9-12.9 3.8-12.9 5.7-18.1 16.8-20.3 29.5-1.4 8.1-1.1 16.6-1.1 24.9-.2 27.5-2.3 54.9-2.4 82.4 0 10.5-2 21.2 2.5 31.6 3 6.9 5.9 13.4 13.4 16.5 3.2 1.3 1.1 2.9.1 4.2l-15.7 19.4c-12.9 15.3-26.9 29.5-43.6 40.8-22.7 15.5-46.7 27.7-74.3 31.4-9.2 1.2-18.3-.1-27.3-1.9-23.1-4.8-43-15.6-60.3-31.6-3.5-3.3-7.6-6-11-9.4-3.3-3.2-6.6-3.1-10.5-1.4l-34 14.6c-2 .9-4 1.9-7.7 1.8zm193.5-172.8c.9 17.2-.7 36.4-1 55.5l-1.9 65.9c-.2 6 .7 12 1.9 17.8.4 2 1.6 3.8 3.8 4.2 2.2.3 3.1-1.6 4.1-3.1 3.3-4.9 5.9-10.1 6.8-16 3.1-20.2 5.1-40.6 7.3-61 .9-8.9 2.3-17.5 7.5-25 1.4-2 3.2-3.6 5.8-3.1 2.7.5 3.6 2.7 4.1 5.1.3 1.5.5 3 .6 4.4.3 8.7-.3 17.4-1.6 25.9-3 20.8-3.3 41.5-.2 62.2.7 4.4 1.1 9 4.4 12.5 3 3.2 6.5 3.3 9.4-.1 1.5-1.8 2.3-4 3-6.3 1.9-6.4 2.3-13.1 2.9-19.7 1.5-15.6 2.5-31.2 3.2-46.8l3.8-70.3 2.5-34.8 2.4-47.9c.2-6.8-3.5-11.6-8.6-12.4-7.1-1.1-12.1 1.7-13.8 9-4.9 21-6.9 42.3-5.8 63.9.4 8.1 1.1 16.3-.8 24.4-1.1 4.6-3.6 7.9-8.6 8.5-6.7.8-11.1-3.3-11.2-10.7-.5-23 1.4-45.9 3.6-68.8.8-8.7.5-17.3-1.6-25.8-1.7-6.7-7.6-8.5-13-4.2-3.1 2.5-4.9 5.8-5.9 9.6-3 11.3-4.4 22.9-4 34.6.7 17 1.2 33.8.9 52.5zM309.8 51.1c-13.7-.4-26.4-.4-38.8 2.1-7.3 1.4-15 1.9-21.2 6.6-3.7 2.8-6.8 6.2-5.4 11.4 1.4 5 5.4 7 10 7.8 5.2.9 10.6 1.3 15.8 2.1 9.5 1.6 18.6 4.2 23.8 13.5 3.8 6.9 6.7 14.1 7.6 22 1.2 10.2 2.7 20.4 3.3 30.8l4.6 72.7c1 23.6 1.5 47.2 4.2 70.7.9 7.9 1.2 16 4.9 23.3 1.1 2.1 2.3 4.4 5 4.3 2.8-.1 3.5-2.8 4.5-4.8.5-1 .9-2.2 1.1-3.3 1.1-6.9 2.2-13.8 2.4-20.8.3-17.1.9-34.2.2-51.4-.9-20.1-.2-40.3-.3-60.5 0-10.5.5-21-.2-31.5-.9-14-.3-27.9.5-41.8 1-16.8 10.9-26.9 27.4-29.5 4.3-.7 8.6-1.2 12.8-2 3.9-.7 6.9-3.1 7.3-7.1.4-3.7-2.6-5.6-5.6-6.9-2.4-1.1-4.9-2.1-7.5-2.6-18.9-3.3-37.9-6.4-56.4-5.1zm-109.4 84.7c.6-18.9-9.1-32.2-24.2-41.9-5.3-3.4-11.8-4.7-18.2-4.3-20.9 1.5-35.6 13.5-47.9 29.2a14.02 14.02 0 0 0-3 10.3c1.1 11.2 3.9 22.1 7.7 32.5 12.7 34.3 25.3 68.7 42.7 101 2.8 5.2 5.4 10.7 9.6 15.1 1.2 1.3 2.3 3.2 4.5 2.2 1.8-.8 2-2.6 2-4.3.1-7 .4-13.9-.8-20.9l-11.6-69.4c-.7-3.9.5-6.2 3.8-8.2 5.8-3.3 11.3-7.1 16.9-10.6 11.6-7 19.2-16.4 18.5-30.7zm58.2 68.4c2.2 4.2 3.1 7.7 4 11.2l18.1 63.9c2 6.4 4.4 12.6 7.7 18.4 1.2 2.1 2.8 4.8 5.5 4.5 3-.4 3.8-3.6 4.3-6.1.8-4.4 1.5-8.9 1.5-13.4.1-19-.7-37.9-1.9-56.9l-3.3-69.8c-.6-11.4-1.2-22.9-3.9-34.2-.8-3.3-1.9-6.4-3.9-9.1-.8-1.1-1.5-2.4-3.2-2-1.5.4-2.2 1.6-2.4 3-.6 3.6-1.4 7.3-1.3 10.9.3 9.3 1.1 18.6 1.8 27.9l4.8 68.7c.3 4.6.4 9.2-1.6 14.3-2.5-3.2-3.4-6.3-4.3-9.5-8.1-28.4-13-57.5-20.8-85.9-2-7.4-4.4-14.6-7-21.8-.7-2-1.9-4.9-4.7-4.5-2.6.4-2.4 3.3-2.9 5.3-2.3 10.5-1.9 21.2-2.3 31.8-1.1 25 .3 50 1.1 74.9.5 15.4 1.1 31 3.7 46.2 1.8 10.7 2.2 21.6 5.7 31.9.7 2 1.1 4.7 3.9 4.4 2.7-.3 2.3-2.9 2.4-4.8.8-15-.9-29.9-1.7-44.8-.7-13.4-3.1-26.8-2.3-40.3.5-4.5.6-9 3-14.2zm-20.9 24.9c0-2.9.3-6.7 0-10.5-1.5-17-4-33.6-12.8-48.8-8.5-14.6-22.4-15.9-32.3-2.5-5.2 7-7 15.4-8.7 23.7-3.8 18.4-2.4 36.7.7 55 2.5 14.6 7.2 28.4 15.7 40.6 7.8 11.4 18.5 11 25.8-.6 1.8-2.8 3.6-5.6 4.5-8.9 4.4-15.3 7.8-30.8 7.1-48zm414-79c2.3 21.1-5.9 41.1-14.2 61-8.6 20.7-19 40.4-32.5 58.3-6.3 8.4-12.8 16.5-21.3 23-13.5 10.4-34.2 7.6-43.9-.4-3-2.5-5.1-5.6-6.3-9.4-4.9-14.6-5.1-29.8-5.9-44.9-.6-12-1-23.9-3.9-35.7-1.1-4.6-3.4-7.9-7.7-10.4-10.6-6.1-21.6-11.2-32.7-16.1-3.6-1.6-5.1-1.4-5.9 3-3 16.9-6.1 33.8-11.6 50.1-2.4 7.1-4.7 14.2-7.7 21.1-1.3 2.9-2.2 4.6-4.6.7-1.4-2.3-3.5-4.1-6-5.1-10.1-4.3-13.7-12.5-13.7-22.8 0-5-.2-10 0-15 .3-7.9 4.7-13.2 12.5-14.6 5.2-1 9.9-2.8 14.4-5.3 8.5-4.7 9-11.7.9-16.9-4-2.6-8.5-4.5-12.9-6.6-4.6-2.2-7.3-5.3-7.2-10.8.2-6.7 1-13.3 2.8-19.7 2.1-7.9 17-12 23.2-6.7 1.3 1.2 1.7 2.8 2.1 4.4l7 34.2c.8 4 2.6 5.7 6.7 5.5 7-.3 14-.5 20.9 0 6.4.4 10.2-2.4 13.2-7.7 10-17.7 20.4-35.1 32.3-51.6 7.3-10.2 14.9-20.3 27-25.3 29.1-12.1 57.7-2.8 70 28.2 4.6 11.2 5.6 22.6 5 35.5zm-86.1 66.5c.1 8.7-.4 17.3 1.7 25.8.5 2 .9 4 3.1 4.7 2.5.9 3.7-1.1 5-2.4 6.7-6.9 10.1-16 14.5-24.3 9.8-18.3 17.2-37.9 26.3-56.6 6-12.3 9-25.3 10.3-38.8 1-11.4-3-17.7-13.6-22-3.1-1.3-6.3-1.9-9.7-2.3-8.7-1.1-15.2 1.9-19.7 9.5-1.6 2.7-2.9 5.6-4 8.6-4.4 11.7-7.7 23.7-10 36-3.6 20.5-2.9 41.2-3.9 61.8zm13.1 55.4c0-7.5-5.8-12.9-14-12.9-8 0-15.5 8.2-15.6 17-.1 5.9 9.4 13.9 16.3 13.7 6.1-.2 13.3-9.8 13.3-17.8z" fill="#fc3"/><path d="M23 397.5c-5.9 5.6-6.6 12.3-5.4 19.8-3.2-2.8-4.3-5.7-2.9-12.2 1.3-6.3 3.1-12.5 6.7-18.1 7.3-11.2 24.9-13.9 31.8 2.1 2 4.6 7.3 5.5 10.4 9 .7.8 1.9 0 2.8-.5 5.4-3 11.4-4.5 17.3-6.2s10.1-5.3 13-10.8c3.2-6 6.5-12 12.3-16.1.7-.5 2.2-.8.9-2.6-4.4-5.8-3.9-7 2.8-8.8 7.6-2.1 16.4 2.8 17.9 11.2.2 1.3 4 4.7 3.9 6.5 0 1.1-3.9.6-3.8 1.7.2 3.9-2.1 6.1-5.6 7.3-2 .7-1.9 2-1 3.6 6.9 11.3 2.4 22.2-1.3 33-1.1 3.2-4 5.3-6.4 7.6-3.6 3.4-7.8 6-9.6 11.2-.9 2.6-4.3 2.8-6.5 4.2-1.5 1-3.6 1.7-4 3.6-1.2 5.4-5 9.3-7.9 13.7-3.1 4.7-2.3 19.1 1.3 23.5 2 2.5 5 1 7.5 1.4.9.2 2.3-.3 2.6.8.1.6-1 1.4-1.6 2.2 1.3 0 2.7-.1 4 0 1.3.2 4-.5 3.3 1.5-.4 1.2-.4 4.4-3.5 4.1-2-.2-4.1.3-6-.1-4.5-.9-8.8-.8-13 1.4-1.1.5-2.4.9-3.3-.1-1-1.1.5-1.6.9-2.3 1.6-2.3-1-2.2-2-2.7-.4-.2-1.4.6-2.2.9-1.6.6-3.2 1.9-5 .4 2.1-1.9-3.5-4.8 1.2-6.8 4-1.7 4.5-5.5 3.1-9.8-1.9-5.8-4.8-11.3-5.5-17.5-.1-.7-.8-1.6-1.4-1.9-5.3-2.6-8.8-7.4-13.5-10.8-7.4-5.3-13.7-11.9-16.2-21.2-.9-3.4-4.1-5.6-5-9.1-.4-1.5-1.8-1.1-3-.7-2.6.8-4.7.7-4.9-2.8 0-.4-.6-1.2-.8-1.2-6 1.1-1.6-2.8-2-4.3-.2-1.1 1.3-2.2-.4-4.1zm246.4 39.3c0-3.2.5-6.4-.1-9.5-.7-3.5.8-3.9 3.5-3.7 2.1.2 4.4-.1 6.4.4 4.9 1.2 5.9 3.3 3.7 7.9-.7 1.5-1 2.1.6 3.1 2.7 1.5 4.3 3.9 3.3 7.1-1.1 3.4-4 4.9-7.3 5-3.4.1-8 1.7-10-.8-1.6-2-.3-6.3-.3-9.6 0 .1.1.1.2.1zm3.7 3.1c.1 4.4 1.1 5.7 4.4 5.7 3 .1 5.4-1 5.6-4.3.2-2.9-3.8-6.1-6.9-6-3.2.1-3.1 2.4-3.1 4.6zm80.3-17.1c3 .6 6.2.8 9 2.3 6.3 3.3 8.1 10.5 4.1 16.6-5.6 8.4-21.4 8.3-26.8-.2-3.3-5.2-1.7-12.3 3.7-15.7 3-1.9 6.4-2.5 10-3zm.8 22.8c6 0 9.9-3.7 10.1-9.3.2-6.4-4.6-11.1-11.4-11.1-6.5 0-10.5 3.5-10.7 9.2-.1 6.7 4.8 11.3 12 11.2zm87.7-16.1c.7 6.4-1.3 12 2.1 17.4-3.3.6-5.7 1.2-4.9-3.9.8-4.7.1-9.6.2-14.4 0-1.4-.6-3.3.9-4.2 1.7-1 2.7.8 3.7 1.7l17.6 15.2c1.7-5.4.1-10.3-.5-15.1-.3-2.1-.1-2.8 1.9-2.7 1.3.1 2.4-.1 2.3 2.1-.4 5.6-.2 11.3-.4 16.9 0 1.3.4 2.9-.9 3.7-1.6.9-2.8-.5-3.9-1.4l-18.1-15.3zm-238.3 11.9c0 3.7-1.4 5.4-4.5 6.1-5.9 1.4-11.6.5-17-1.8-5.5-2.3-8.4-7-8.5-13 0-5.3 4.8-11.1 10.3-12.8 5.7-1.8 11.4-1.5 17.2-.3 1.5.3 2.5 1 2.6 2.5.1 1 .2 2.2-.9 2.6-1.5.6-1.7-1.2-2.6-1.8-3.9-2.5-14-2.4-17.7.3-5.9 4.2-5.7 13.8.2 18.6 6.4 5.1 14.4 5 20.9-.4zm267.2 5.6c4.5-6.5 7-13.3 10.2-19.8.6-1.2 1-2.8 2.3-3 1.9-.2 2.1 1.7 2.8 3 3.6 6.3 5.8 13.3 10.4 19.1-4.5 1.6-5 1.6-6.6-2.5-1.5-4-4.2-4.8-8.2-4.7-3.8.1-5 2.5-5.4 5.3-.4 3.6-2.6 2.8-5.5 2.6zm-36.7-.3c-5.3 1.4-7.9-1.5-10.6-4.1-.4-.3-.7-.7-1.1-1.1-2.1-2-4-5.9-7.2-3.5-2.7 2-1.2 5.7.1 8.6-6.1 1.3-6.1 1.2-5.3-4.9.6-5.1 1.1-10.3-.5-15.3-.4-1.4-.9-2.7 1.3-2.7 3.8.1 7.6-.6 11.4.6 4.9 1.6 6.5 5.2 3.4 9.1-2.8 3.4-1.4 5.2 1.1 7.3l3.4 2.9c1.1.9 2.3 1.8 4 3.1zm-19.9-16.9c-.3 3.6-.1 6 3.9 5.9 3.5-.1 4.9-2.1 4.8-5-.1-3.5-2.6-5.3-6-5.3-3.9 0-2.5 3.1-2.7 4.4zm86.2 5.5c0-5.6 3-9.6 8.8-11.3 4.9-1.4 9.8-1.4 14.8-.4 1.2.3 2.3.7 2.5 2 .1.6 0 1.5-.4 1.8-1.4 1.3-1.9-.6-2.8-1-7.5-4.1-16.8-1.1-18.5 6.1-1 4.4 1 7.8 4.3 10.4 3.5 2.8 7.7 3.4 11.8 2.1 2.4-.7 1.4-3.4 1.6-5.3.2-1.7-1.1-4.4 2.4-4.2 3.5.1 1.6 2.6 1.5 4-.7 7.3-3.8 9.6-11.3 8.3-2.9-.5-5.9-.9-8.6-2.4-4.2-2.2-6.2-5.5-6.1-10.1zM395.7 433l-.6-7.4c-.3-2.4 1.4-1.8 2.5-1.8 1 0 2.2-.3 2 1.8-.4 4.3-.3 8.6-.6 12.9-.5 5.9-4.8 9.5-11.3 9.7-6.1.2-10.6-3-11.4-8.7-.7-4.6-.7-9.3-1.2-13.9-.3-2.8 1.8-1.8 2.9-1.9 1.4-.1 2.8-.3 2.4 2.3-.6 3.7-.4 7.6-.3 11.5.1 5.6 2.7 8.2 7.8 8.2 5.5 0 7.4-2.1 7.6-8.2V433h.2zm-141.2-9c3.1-.8 5.1-.6 4.6 3.6-.5 4.3.2 8.6-1 12.9-1.4 5-6.6 8.3-12.4 7.6-6.8-.8-10-3.8-10.2-9.9-.1-3.8.1-7.7-.2-11.4-.2-1.9-.6-3.1 2-3.1 2.5 0 3.2 1 2.8 3.4-.8 4.3-1 8.5-.1 12.8.9 3.9 3.1 5.6 6.9 5.8 4 .2 7.3-1.2 8.1-5.1.9-5.4 1-10.9-.5-16.6zm298 20.2c.1 2.4-1.2 3-2.8 3-3.7.1-7.8 1.1-10.8-.3-3.8-1.8-.7-6.3-1.2-9.6-.5-3.6.1-7.3-.5-10.9-.4-2.7.7-2.8 2.6-2.8 2.8 0 5.7-.1 8.5.1 1.3.1 3.6-.5 3.1 1.9-.4 1.9-2.2.6-3.4.3-5.2-1.2-6.6 0-5.9 5 .4 3.3 2.8 2.6 4.8 2.8 1.5.2 4-.6 3.8 1.9-.2 2.7-2.4.7-3.5.6-3.4-.2-5.3.5-5.2 4.5 0 4.2 1.9 5.4 5.5 4.8 1.6-.2 3.1-.8 5-1.3zM324.4 447l-4.3.3c-2.5.2-3.3-.1-2.5-3.3 1.7-6.6 1.2-13.6.4-20.3-.5-4.3-4.8-2-7.5-2.2-1.2-.1-2.3 1.5-3.6.4-.2-.2-.3-1-.1-1.4.8-1.4 2.2-1.1 3.5-1.1l18.9.2c1.3 0 2.7.1 3.9.6.8.3.9 1.4.5 2.2-.4.9-1 .4-1.6.2-.8-.3-1.6-.6-2.4-.8-6.1-1.6-7.8-.5-7.6 5.6.4 6.5-1.3 13.2 2.4 19.6zm-104 .2c-7 0-7 0-7-6.9 0-4.8-.1-9.6-.3-14.4 0-.7-.9-1.8.3-2 1.2-.3 2.7-.2 3.9.1 1.1.3.5 1.3.3 2.1-1.1 4.1-.5 8.3-.5 12.4 0 6.6 2.4 8.4 8.7 6.8.9-.2 2.3-2.5 2.9 0 .4 1.7-1.6 1.8-2.9 1.8-1.8.2-3.6.1-5.4.1z"/><path d="M168.7 137.8c.1 8.4-8.1 16.9-15.6 17.1-1.8.1-3.5-.3-4.5-1.7-5.3-7.1-8.9-14.9-7.2-24.1.9-4.7 2.7-9.3 8-10.4 5.7-1.1 10.6 1.4 14.1 5.7 3.2 4.1 5 9 5.2 13.4zm25 78.3c.5-11 .5-22 6-32.1 2.1-3.9 4.5-7.5 9.8-7.1 5.2.4 7.5 4.2 9 8.3 4.6 13.2 5.9 27 5 40.8-.6 8.9-.5 18-2.6 26.8-1 4.4-2 8.7-3.8 12.9-1.5 3.3-3.9 5.6-7.5 5.8-3.4.2-5.4-2.5-6.7-5.2-3.5-7.2-5.3-15.1-6.7-23-1.6-8.8-2.9-18-2.5-27.2z" fill="#fc3"/></svg>