<svg xmlns="http://www.w3.org/2000/svg" xmlns:xlink="http://www.w3.org/1999/xlink" width="217" height="217" viewBox="0 0 100 100" preserveAspectRatio="xMidYMid" xmlns:v="https://vecta.io/nano"><g transform="translate(50 50)"><g transform="matrix(.5 0 0 .5 -17 -17)"><g transform="rotate(39.615)"><animateTransform attributeName="transform" type="rotate" values="0;45" keyTimes="0;1" dur="0.5714285714285714s" begin="0s" repeatCount="indefinite"/><use xlink:href="#B" fill="#fff"/></g></g><g transform="matrix(.4 0 0 .4 0 22)"><g transform="rotate(27.885)"><animateTransform attributeName="transform" type="rotate" values="45;0" keyTimes="0;1" dur="0.5714285714285714s" begin="-0.2857142857142857s" repeatCount="indefinite"/><use xlink:href="#B" fill="#fff"/></g></g><g transform="matrix(.3 0 0 .3 28 4)"><g transform="rotate(17.115)"><animateTransform attributeName="transform" type="rotate" values="0;45" keyTimes="0;1" dur="0.5714285714285714s" begin="-0.2857142857142857s" repeatCount="indefinite"/><use xlink:href="#B" fill="#fff"/></g></g></g><defs ><path id="B" d="M37.44-6.5h14v13h-14a38 38 0 0 1-6.37 15.378h0l9.899 9.899-9.192 9.192-9.899-9.899A38 38 0 0 1 6.5 37.44h0v14h-13v-14a38 38 0 0 1-15.378-6.37h0l-9.899 9.899-9.192-9.192 9.899-9.899A38 38 0 0 1-37.44 6.5h0-14v-13h14a38 38 0 0 1 6.37-15.378h0l-9.899-9.899 9.192-9.192 9.899 9.899A38 38 0 0 1-6.5-37.44h0v-14h13v14a38 38 0 0 1 15.378 6.37h0l9.899-9.899 9.192 9.192-9.899 9.899A38 38 0 0 1 37.44-6.5M0-19a19 19 0 1 0 0 38 19 19 0 1 0 0-38"/></defs></svg>