<svg xmlns="http://www.w3.org/2000/svg" height="681.333" viewBox="-15 0 511 512" width="681.333" xmlns:v="https://vecta.io/nano"><path d="M330.5 15.008v422c0 8.398-6.598 15-15 15h-120c-8.402 0-15-6.602-15-15l-180-422c0-8.402 6.598-15 15-15h300c8.402 0 15 6.598 15 15zm0 0" fill="#07485e"/><path d="M330.5 15.008v422c0 8.398-6.598 15-15 15h-120c-8.402 0-15-6.602-15-15l-45-105v-332h180c8.402 0 15 6.598 15 15zm0 0" fill="#03232e"/><path d="M202.098 91.508l-180-90C17.602-.594 11.898-.594 7.699 2.109 3.199 5.105.5 9.906.5 15.008v422c0 6.598 4.199 12.301 10.199 14.098L135.5 492.809l55.199 18.297c4.418 1.77 10.078.77 13.5-1.797 3.902-3 6.301-7.5 6.301-12.301v-392c0-5.699-3.301-10.801-8.402-13.5zm0 0" fill="#ff8859"/><path d="M210.5 105.008v392c0 4.801-2.402 9.301-6.301 12.301-3.391 2.543-9.039 3.586-13.5 1.797L135.5 492.809V58.207l66.598 33.301c5.102 2.699 8.402 7.801 8.402 13.5zm157.926 225.226a14.99 14.99 0 0 1-7.926-13.227v-15h-105c-8.293 0-15-6.711-15-15v-60a14.99 14.99 0 0 1 15-15h105v-15a15 15 0 0 1 7.926-13.23c4.863-2.59 10.797-2.297 15.395.75l90 60c4.176 2.781 6.68 7.469 6.68 12.48a14.99 14.99 0 0 1-6.68 12.477l-90 60a14.99 14.99 0 0 1-15.395.75zm0 0" fill="#ff3939"/><path d="M150.5 227.008v60c0 8.398-6.598 15-15 15s-15-6.602-15-15v-60c0-8.402 6.598-15 15-15s15 6.598 15 15zm0 0" fill="#fff5f5"/><path d="M150.5 227.008v60c0 8.398-6.598 15-15 15v-90c8.402 0 15 6.598 15 15zm0 0" fill="#efe2dd"/></svg>